<mxfile host="Electron" modified="2023-07-08T08:38:33.385Z" agent="Mozilla/5.0 (Macintosh; Intel Mac OS X 10_15_7) AppleWebKit/537.36 (KHTML, like Gecko) draw.io/21.6.1 Chrome/112.0.5615.204 Electron/24.6.1 Safari/537.36" etag="K1ntbZ7vwMdXlKhaWC_v" version="21.6.1" type="device">
  <diagram name="Page-1" id="ovZp-Mzr9LYe9Q-ZW3JI">
    <mxGraphModel dx="954" dy="602" grid="1" gridSize="10" guides="1" tooltips="1" connect="1" arrows="1" fold="1" page="1" pageScale="1" pageWidth="827" pageHeight="1169" math="0" shadow="0">
      <root>
        <mxCell id="0" />
        <mxCell id="1" parent="0" />
        <mxCell id="Zw9MDEK5PmF-2Ar9wDsg-5" value="" style="shape=folder;fontStyle=1;spacingTop=10;tabWidth=40;tabHeight=14;tabPosition=left;html=1;whiteSpace=wrap;" vertex="1" parent="1">
          <mxGeometry x="30" y="420" width="980" height="660" as="geometry" />
        </mxCell>
        <mxCell id="Zw9MDEK5PmF-2Ar9wDsg-6" value="" style="shape=folder;fontStyle=1;spacingTop=10;tabWidth=40;tabHeight=14;tabPosition=left;html=1;whiteSpace=wrap;fillColor=#dae8fc;strokeColor=#6c8ebf;" vertex="1" parent="1">
          <mxGeometry x="60" y="470" width="910" height="320" as="geometry" />
        </mxCell>
        <mxCell id="Zw9MDEK5PmF-2Ar9wDsg-8" value="" style="shape=folder;fontStyle=1;spacingTop=10;tabWidth=40;tabHeight=14;tabPosition=left;html=1;whiteSpace=wrap;" vertex="1" parent="1">
          <mxGeometry x="80" y="510" width="400" height="260" as="geometry" />
        </mxCell>
        <mxCell id="Zw9MDEK5PmF-2Ar9wDsg-10" value="&lt;b&gt;security&lt;/b&gt;" style="text;html=1;strokeColor=none;fillColor=none;align=center;verticalAlign=middle;whiteSpace=wrap;rounded=0;" vertex="1" parent="1">
          <mxGeometry x="285" y="530" width="60" height="30" as="geometry" />
        </mxCell>
        <mxCell id="Zw9MDEK5PmF-2Ar9wDsg-11" value="config" style="shape=folder;fontStyle=1;spacingTop=10;tabWidth=40;tabHeight=14;tabPosition=left;html=1;whiteSpace=wrap;" vertex="1" parent="1">
          <mxGeometry x="90" y="585" width="80" height="55" as="geometry" />
        </mxCell>
        <mxCell id="Zw9MDEK5PmF-2Ar9wDsg-12" value="filter" style="shape=folder;fontStyle=1;spacingTop=10;tabWidth=40;tabHeight=14;tabPosition=left;html=1;whiteSpace=wrap;" vertex="1" parent="1">
          <mxGeometry x="190" y="585" width="80" height="55" as="geometry" />
        </mxCell>
        <mxCell id="Zw9MDEK5PmF-2Ar9wDsg-13" value="" style="shape=folder;fontStyle=1;spacingTop=10;tabWidth=40;tabHeight=14;tabPosition=left;html=1;whiteSpace=wrap;" vertex="1" parent="1">
          <mxGeometry x="330" y="670" width="96" height="80" as="geometry" />
        </mxCell>
        <mxCell id="Zw9MDEK5PmF-2Ar9wDsg-14" value="customAnnotation" style="shape=folder;fontStyle=1;spacingTop=10;tabWidth=40;tabHeight=14;tabPosition=left;html=1;whiteSpace=wrap;" vertex="1" parent="1">
          <mxGeometry x="130" y="690" width="120" height="55" as="geometry" />
        </mxCell>
        <mxCell id="Zw9MDEK5PmF-2Ar9wDsg-16" value="jwt" style="shape=folder;fontStyle=1;spacingTop=10;tabWidth=40;tabHeight=14;tabPosition=left;html=1;whiteSpace=wrap;" vertex="1" parent="1">
          <mxGeometry x="285" y="585" width="80" height="55" as="geometry" />
        </mxCell>
        <mxCell id="Zw9MDEK5PmF-2Ar9wDsg-17" value="" style="shape=folder;fontStyle=1;spacingTop=10;tabWidth=40;tabHeight=14;tabPosition=left;html=1;whiteSpace=wrap;" vertex="1" parent="1">
          <mxGeometry x="505" y="520" width="140" height="100" as="geometry" />
        </mxCell>
        <mxCell id="Zw9MDEK5PmF-2Ar9wDsg-22" value="DTO" style="shape=folder;fontStyle=1;spacingTop=10;tabWidth=40;tabHeight=14;tabPosition=left;html=1;whiteSpace=wrap;" vertex="1" parent="1">
          <mxGeometry x="515" y="560" width="70" height="50" as="geometry" />
        </mxCell>
        <mxCell id="Zw9MDEK5PmF-2Ar9wDsg-23" value="" style="shape=folder;fontStyle=1;spacingTop=10;tabWidth=40;tabHeight=14;tabPosition=left;html=1;whiteSpace=wrap;" vertex="1" parent="1">
          <mxGeometry x="505" y="640" width="190" height="130" as="geometry" />
        </mxCell>
        <mxCell id="Zw9MDEK5PmF-2Ar9wDsg-24" value="exceptions" style="shape=folder;fontStyle=1;spacingTop=10;tabWidth=40;tabHeight=14;tabPosition=left;html=1;whiteSpace=wrap;" vertex="1" parent="1">
          <mxGeometry x="515" y="700" width="70" height="50" as="geometry" />
        </mxCell>
        <mxCell id="Zw9MDEK5PmF-2Ar9wDsg-25" value="model" style="shape=folder;fontStyle=1;spacingTop=10;tabWidth=40;tabHeight=14;tabPosition=left;html=1;whiteSpace=wrap;" vertex="1" parent="1">
          <mxGeometry x="615" y="700" width="70" height="50" as="geometry" />
        </mxCell>
        <mxCell id="Zw9MDEK5PmF-2Ar9wDsg-27" value="" style="shape=folder;fontStyle=1;spacingTop=10;tabWidth=40;tabHeight=14;tabPosition=left;html=1;whiteSpace=wrap;" vertex="1" parent="1">
          <mxGeometry x="670" y="520" width="140" height="100" as="geometry" />
        </mxCell>
        <mxCell id="Zw9MDEK5PmF-2Ar9wDsg-28" value="builder" style="shape=folder;fontStyle=1;spacingTop=10;tabWidth=40;tabHeight=14;tabPosition=left;html=1;whiteSpace=wrap;" vertex="1" parent="1">
          <mxGeometry x="680" y="560" width="70" height="50" as="geometry" />
        </mxCell>
        <mxCell id="Zw9MDEK5PmF-2Ar9wDsg-29" value="" style="shape=folder;fontStyle=1;spacingTop=10;tabWidth=40;tabHeight=14;tabPosition=left;html=1;whiteSpace=wrap;" vertex="1" parent="1">
          <mxGeometry x="830" y="520" width="130" height="100" as="geometry" />
        </mxCell>
        <mxCell id="Zw9MDEK5PmF-2Ar9wDsg-33" value="" style="shape=folder;fontStyle=1;spacingTop=10;tabWidth=40;tabHeight=14;tabPosition=left;html=1;whiteSpace=wrap;" vertex="1" parent="1">
          <mxGeometry x="760" y="660" width="140" height="100" as="geometry" />
        </mxCell>
        <mxCell id="Zw9MDEK5PmF-2Ar9wDsg-34" value="bookingSearch" style="shape=folder;fontStyle=1;spacingTop=10;tabWidth=40;tabHeight=14;tabPosition=left;html=1;whiteSpace=wrap;" vertex="1" parent="1">
          <mxGeometry x="770" y="700" width="100" height="50" as="geometry" />
        </mxCell>
        <mxCell id="Zw9MDEK5PmF-2Ar9wDsg-35" value="&lt;b&gt;controller&lt;/b&gt;" style="text;html=1;strokeColor=none;fillColor=none;align=center;verticalAlign=middle;whiteSpace=wrap;rounded=0;" vertex="1" parent="1">
          <mxGeometry x="545" y="530" width="60" height="30" as="geometry" />
        </mxCell>
        <mxCell id="Zw9MDEK5PmF-2Ar9wDsg-36" value="&lt;b&gt;model&lt;/b&gt;" style="text;html=1;strokeColor=none;fillColor=none;align=center;verticalAlign=middle;whiteSpace=wrap;rounded=0;" vertex="1" parent="1">
          <mxGeometry x="710" y="530" width="60" height="30" as="geometry" />
        </mxCell>
        <mxCell id="Zw9MDEK5PmF-2Ar9wDsg-37" value="&lt;b&gt;exception&lt;/b&gt;" style="text;html=1;strokeColor=none;fillColor=none;align=center;verticalAlign=middle;whiteSpace=wrap;rounded=0;" vertex="1" parent="1">
          <mxGeometry x="560" y="660" width="60" height="30" as="geometry" />
        </mxCell>
        <mxCell id="Zw9MDEK5PmF-2Ar9wDsg-38" value="&lt;b&gt;service&lt;/b&gt;" style="text;html=1;strokeColor=none;fillColor=none;align=center;verticalAlign=middle;whiteSpace=wrap;rounded=0;" vertex="1" parent="1">
          <mxGeometry x="800" y="670" width="60" height="30" as="geometry" />
        </mxCell>
        <mxCell id="Zw9MDEK5PmF-2Ar9wDsg-39" value="&lt;b&gt;Repository&lt;/b&gt;" style="text;html=1;strokeColor=none;fillColor=none;align=center;verticalAlign=middle;whiteSpace=wrap;rounded=0;" vertex="1" parent="1">
          <mxGeometry x="865" y="530" width="60" height="30" as="geometry" />
        </mxCell>
        <mxCell id="Zw9MDEK5PmF-2Ar9wDsg-40" value="DTO" style="shape=folder;fontStyle=1;spacingTop=10;tabWidth=20;tabHeight=10;tabPosition=left;html=1;whiteSpace=wrap;" vertex="1" parent="1">
          <mxGeometry x="336" y="710" width="36" height="35" as="geometry" />
        </mxCell>
        <mxCell id="Zw9MDEK5PmF-2Ar9wDsg-41" value="&lt;b&gt;controller&lt;/b&gt;" style="text;html=1;strokeColor=none;fillColor=none;align=center;verticalAlign=middle;whiteSpace=wrap;rounded=0;" vertex="1" parent="1">
          <mxGeometry x="376" y="660" width="4" height="70" as="geometry" />
        </mxCell>
        <mxCell id="Zw9MDEK5PmF-2Ar9wDsg-45" value="service" style="shape=folder;fontStyle=1;spacingTop=10;tabWidth=40;tabHeight=14;tabPosition=left;html=1;whiteSpace=wrap;" vertex="1" parent="1">
          <mxGeometry x="382" y="585" width="80" height="55" as="geometry" />
        </mxCell>
        <UserObject label="src.main.com.marcominaudo.gymweb" id="Zw9MDEK5PmF-2Ar9wDsg-46">
          <mxCell style="text;html=1;strokeColor=none;fillColor=none;align=center;verticalAlign=middle;whiteSpace=wrap;rounded=0;" vertex="1" parent="1">
            <mxGeometry x="444" y="490" width="60" height="30" as="geometry" />
          </mxCell>
        </UserObject>
        <mxCell id="Zw9MDEK5PmF-2Ar9wDsg-48" value="" style="shape=folder;fontStyle=1;spacingTop=10;tabWidth=40;tabHeight=14;tabPosition=left;html=1;whiteSpace=wrap;fillColor=#d5e8d4;strokeColor=#82b366;" vertex="1" parent="1">
          <mxGeometry x="60" y="820" width="700" height="240" as="geometry" />
        </mxCell>
        <mxCell id="Zw9MDEK5PmF-2Ar9wDsg-49" value="" style="shape=folder;fontStyle=1;spacingTop=10;tabWidth=40;tabHeight=14;tabPosition=left;html=1;whiteSpace=wrap;" vertex="1" parent="1">
          <mxGeometry x="90" y="870" width="260" height="160" as="geometry" />
        </mxCell>
        <mxCell id="Zw9MDEK5PmF-2Ar9wDsg-50" value="" style="shape=folder;fontStyle=1;spacingTop=10;tabWidth=40;tabHeight=14;tabPosition=left;html=1;whiteSpace=wrap;" vertex="1" parent="1">
          <mxGeometry x="420" y="870" width="270" height="160" as="geometry" />
        </mxCell>
        <mxCell id="Zw9MDEK5PmF-2Ar9wDsg-52" value="repository" style="shape=folder;fontStyle=1;spacingTop=10;tabWidth=40;tabHeight=14;tabPosition=left;html=1;whiteSpace=wrap;" vertex="1" parent="1">
          <mxGeometry x="110" y="940" width="110" height="70" as="geometry" />
        </mxCell>
        <mxCell id="Zw9MDEK5PmF-2Ar9wDsg-53" value="mapper" style="shape=folder;fontStyle=1;spacingTop=10;tabWidth=40;tabHeight=14;tabPosition=left;html=1;whiteSpace=wrap;" vertex="1" parent="1">
          <mxGeometry x="435" y="940" width="110" height="70" as="geometry" />
        </mxCell>
        <mxCell id="Zw9MDEK5PmF-2Ar9wDsg-54" value="service" style="shape=folder;fontStyle=1;spacingTop=10;tabWidth=40;tabHeight=14;tabPosition=left;html=1;whiteSpace=wrap;" vertex="1" parent="1">
          <mxGeometry x="560" y="940" width="110" height="70" as="geometry" />
        </mxCell>
        <mxCell id="Zw9MDEK5PmF-2Ar9wDsg-56" value="&lt;b style=&quot;border-color: var(--border-color);&quot;&gt;integration&lt;/b&gt;" style="text;html=1;strokeColor=none;fillColor=none;align=center;verticalAlign=middle;whiteSpace=wrap;rounded=0;" vertex="1" parent="1">
          <mxGeometry x="180" y="890" width="60" height="30" as="geometry" />
        </mxCell>
        <mxCell id="Zw9MDEK5PmF-2Ar9wDsg-57" value="&lt;b style=&quot;border-color: var(--border-color);&quot;&gt;unitTest&lt;/b&gt;" style="text;html=1;strokeColor=none;fillColor=none;align=center;verticalAlign=middle;whiteSpace=wrap;rounded=0;" vertex="1" parent="1">
          <mxGeometry x="525" y="890" width="60" height="30" as="geometry" />
        </mxCell>
        <UserObject label="src.test.com.marcominaudo.gymweb" id="Zw9MDEK5PmF-2Ar9wDsg-58">
          <mxCell style="text;html=1;strokeColor=none;fillColor=none;align=center;verticalAlign=middle;whiteSpace=wrap;rounded=0;" vertex="1" parent="1">
            <mxGeometry x="348" y="840" width="60" height="30" as="geometry" />
          </mxCell>
        </UserObject>
        <mxCell id="Zw9MDEK5PmF-2Ar9wDsg-62" value="App" style="text;html=1;strokeColor=none;fillColor=none;align=center;verticalAlign=middle;whiteSpace=wrap;rounded=0;" vertex="1" parent="1">
          <mxGeometry x="444" y="440" width="60" height="30" as="geometry" />
        </mxCell>
      </root>
    </mxGraphModel>
  </diagram>
</mxfile>
